# AST/ASF file generated using VICON BodyLanguage
# -----------------------------------------------
:version 1.10
:name VICON
:units
  mass 1.0
  length 0.45
  angle deg
:documentation
   .ast/.asf automatically generated from VICON data using
   VICON BodyBuilder and BodyLanguage model FoxedUp or BRILLIANT.MOD
:root
   order TX TY TZ RX RY RZ
   axis XYZ
   position 0 0 0  
   orientation 0 0 0 
:bonedata
  begin
     id 1 
     name lhipjoint
     direction 0.722297 -0.617336 0.311742 
     length 2.6635 
     axis 0 0 0  XYZ
  end
  begin
     id 2 
     name lfemur
     direction 0.34202 -0.939693 0  
     length 7.39349  
     axis 0 0 20  XYZ
    dof rx ry rz
    limits (-160.0 20.0)
           (-70.0 70.0)
           (-60.0 70.0)
  end
  begin
     id 3 
     name ltibia
     direction 0.34202 -0.939693 0   
     length 7.36294   
     axis 0 0 20   XYZ
    dof rx
    limits (-10.0 170.0)
  end
  begin
     id 4 
     name lfoot
     direction 0.104879 -0.288152 0.951824   
     length 2.16981   
     axis -90 7.62852e-016 20   XYZ
    dof rx rz
    limits (-45.0 90.0)
           (-70.0 20.0)
  end
  begin
     id 5 
     name ltoes
     direction 1.53586e-011 -4.21895e-011 1   
     length 1.08218   
     axis -90 7.62852e-016 20   XYZ
    dof rx
    limits (-90.0 20.0)
  end
  begin
     id 6 
     name rhipjoint
     direction -0.75102 -0.589393 0.297631   
     length 2.78977  
     axis 0 0 0  XYZ 
  end
  begin
     id 7 
     name rfemur
     direction -0.34202 -0.939693 0   
     length 7.46076   
     axis 0 0 -20   XYZ
    dof rx ry rz
    limits (-160.0 20.0)
           (-70.0 70.0)
           (-70.0 60.0)
  end
  begin
     id 8 
     name rtibia
     direction -0.34202 -0.939693 0   
     length 7.31726   
     axis 0 0 -20   XYZ
    dof rx
    limits (-10.0 170.0)
 end
 begin
     id 9 
     name rfoot
     direction -0.107991 -0.296704 0.948844   
     length 2.09388  
     axis -90 -7.62852e-016 -20   XYZ
    dof rx rz
    limits (-45.0 90.0)
           (-20.0 70.0)
  end
  begin
     id 10 
     name rtoes
     direction -1.53559e-011 -4.21911e-011 1   
     length 1.04433   
     axis -90 -7.62852e-016 -20   XYZ
    dof rx
    limits (-90.0 20.0)
  end
  begin
     id 11 
     name lowerback
     direction 0.0165164 0.98272 0.184358   
     length 1.71896   
     axis 0 0 0   XYZ
    dof rx ry rz
    limits (-20.0 45.0)
           (-30.0 30.0)
           (-30.0 30.0)
  end
  begin
     id 12 
     name upperback
     direction -0.00887249 0.992297 0.123566   
     length 1.71504   
     axis 0 0 0   XYZ
    dof rx ry rz
    limits (-20.0 45.0)
           (-30.0 30.0)
           (-30.0 30.0)
  end
  begin
     id 13 
     name thorax
     direction -0.0157026 0.998908 0.0440032   
     length 1.77022   
     axis 0 0 0   XYZ
    dof rx ry rz
    limits (-20.0 45.0)
           (-30.0 30.0)
           (-30.0 30.0)
  end
  begin
     id 14 
     name lowerneck
     direction -0.0238856 0.998137 0.0561411   
     length 1.89341   
     axis 0 0 0   XYZ
    dof rx ry rz
    limits (-20.0 45.0)
           (-30.0 30.0)
           (-30.0 30.0)
  end
  begin
     id 15 
     name upperneck
     direction 0.0276574 0.952253 -0.304056   
     length 1.86999   
     axis 0 0 0   XYZ
    dof rx ry rz
    limits (-20.0 45.0)
           (-30.0 30.0)
           (-30.0 30.0)
  end
  begin
     id 16
     name head
     direction 0.00800083 0.994258 -0.106712  
     length 1.91492  
     axis 0 0 0   XYZ
    dof rx ry rz
    limits (-20.0 45.0)
           (-30.0 30.0)
           (-30.0 30.0)
  end
  begin
     id 17 
     name lclavicle
     direction 0.97203 0.225407 0.06595  
     length 3.34889  
     axis 0 0 0   XYZ
    dof ry rz
    limits (-20.0 10.0)
           (0.0 20.0)
  end
  begin
     id 18 
     name lhumerus
     direction 1 -4.48973e-011 2.20267e-027   
     length 4.85645   
     axis 180 -30 -90   XYZ
    dof rx ry rz
    limits (-60.0 90.0)
           (-90.0 90.0)
           (-90.0 90.0)
  end
  begin
     id 19
     name lradius
     direction 1 -4.4897e-011 4.60472e-027   
     length 2.79874   
     axis 180 -30 -90   XYZ
    dof rx
    limits (-10.0 170.0)
  end
  begin
     id 20
     name lwrist
     direction 1 -4.48952e-011 1.14928e-026   
     length 1.39937   
     axis -6.29373e-015 90 90   XYZ
    dof ry
    limits (-180.0 0.0)
 end
  begin
     id 21 
     name lhand
     direction 1 -4.48967e-011 2.29886e-026   
     length 0.573398   
     axis -1.46689e-014 90 90   XYZ
    dof rx rz
    limits (-90.0 90.0)
           (-45.0 45.0)
  end
  begin
     id 22 
     name lfingers
     direction 1 -4.48955e-011 4.59726e-026   
     length 0.462289   
     axis -2.93383e-014 90 90   XYZ
    dof rx
    limits (0.0 90.0)
  end
  begin
     id 23
     name lthumb
     direction 0.707107 -6.34866e-011 0.707107   
     length 0.663757   
     axis -90 45 5.69224e-014   XYZ
    dof rx rz
    limits (-45.0 45.0)
           (-45.0 45.0)
  end
  begin
     id 24 
     name rclavicle
     direction -0.981571 0.157346 0.108443   
     length 3.35257  
     axis 0 0 0   XYZ 
    dof ry rz
    limits (-10.0 20.0)
           (-20.0 0.0)
  end
  begin
     id 25 
     name rhumerus
     direction -1 -4.48967e-011 8.58308e-029  
     length 4.67018   
     axis 180 30 90   XYZ
    dof rx ry rz
    limits (-90.0 60.0)
           (-90.0 90.0)
           (-90.0 90.0)
  end
  begin
     id 26 
     name rradius
     direction -1 -4.48958e-011 4.52548e-027   
     length 2.65534   
     axis 180 30 90   XYZ
    dof rx
    limits (-10.0 170.0)
  end
  begin
     id 27 
     name rwrist
     direction -1 -4.48977e-011 1.14952e-026   
     length 1.32767   
     axis -6.29373e-015 -90 -90   XYZ
    dof ry
    limits (-180.0 0.0)
  end
  begin
     id 28
     name rhand
     direction -1 -4.48924e-011 2.29804e-026   
     length 0.594069   
     axis -1.46689e-014 -90 -90   XYZ
    dof rx rz
    limits (-90.0 90.0)
           (-45.0 45.0)
  end
  begin
     id 29
     name rfingers
     direction -1 -4.48998e-011 4.59888e-026   
     length 0.478954   
     axis -2.93383e-014 -90 -90   XYZ
    dof rx
    limits (0.0 90.0)
  end
  begin
     id 30
     name rthumb
     direction -0.707107 -6.34933e-011 0.707107   
     length 0.687685   
     axis -90 -45 -5.69224e-014   XYZ
    dof rx rz
    limits (-45.0 45.0)
           (-45.0 45.0)
  end
:hierarchy
  begin
    root lhipjoint rhipjoint lowerback
    lhipjoint lfemur
    lfemur ltibia
    ltibia lfoot
    lfoot ltoes
    rhipjoint rfemur
    rfemur rtibia
    rtibia rfoot
    rfoot rtoes
    lowerback upperback
    upperback thorax
    thorax lowerneck lclavicle rclavicle
    lowerneck upperneck
    upperneck head
    lclavicle lhumerus
    lhumerus lradius
    lradius lwrist
    lwrist lhand lthumb
    lhand lfingers
    rclavicle rhumerus
    rhumerus rradius
    rradius rwrist
    rwrist rhand rthumb
    rhand rfingers
  end

#!OML:ASF E:\pregnant2\Project 1\Capture day 1\Session 1\pregnant2.ASF
:FULLY-SPECIFIED
:DEGREES
101
root 4.97762 16.809 22.0253 -155.032 -2.29206 180.11
lowerback -11.2852 1.04129 -2.03567
upperback -15.2744 -1.5218 1.62066
thorax -10.0898 -1.75785 3.08112
lowerneck -12.3052 0.599428 -8.64255
upperneck 44.5445 -5.78317 2.83775
head 19.6346 -5.98178 0.939454
rclavicle 6.26172e-015 5.1684e-015
rhumerus -51.3452 13.0595 -86.1091
rradius 40.8932
rwrist 8.77339
rhand -11.9799 -17.0353
rfingers 7.12502
rthumb 14.0763 -46.5385
lclavicle 6.26172e-015 5.1684e-015
lhumerus -50.7571 2.43624 86.9135
lradius 35.9232
lwrist -1.90503
lhand -8.66802 30.1663
lfingers 7.12502
lthumb 17.266 59.4193
rfemur -48.56 11.9293 19.8367
rtibia 34.8857
rfoot -11.5308 -17.6746
rtoes 10.8735
lfemur -40.6071 1.77934 -23.4376
ltibia 68.0774
lfoot 5.35031 11.8907
ltoes -11.7426
102
root 4.98304 16.8151 21.923 -154.949 -2.23329 180.157
lowerback -11.2169 1.0321 -1.92102
upperback -15.301 -1.5486 1.63231
thorax -10.1573 -1.78486 3.03375
lowerneck -12.1514 0.664099 -8.68088
upperneck 44.5779 -5.72552 2.7824
head 19.6044 -5.99474 0.928448
rclavicle 1.32192e-014 -2.10712e-014
rhumerus -51.259 13.9101 -86.9659
rradius 42.0151
rwrist 8.25432
rhand -12.4233 -17.0345
rfingers 7.12502
rthumb 13.649 -46.567
lclavicle 1.32192e-014 -2.10712e-014
lhumerus -50.9815 2.90092 86.2774
lradius 34.8863
lwrist -1.98148
lhand -8.64186 30.1011
lfingers 7.12502
lthumb 17.2912 59.3519
rfemur -48.2591 11.9688 20.0154
rtibia 34.9421
rfoot -11.9165 -17.6509
rtoes 10.8439
lfemur -41.9915 1.64418 -23.3877
ltibia 69.1608
lfoot 5.22085 12.1694
ltoes -12.4057
103
root 4.98122 16.8248 21.8036 -155.184 -1.95421 180.202
lowerback -11.095 1.08633 -1.78425
upperback -15.1803 -1.44059 1.5915
thorax -10.0876 -1.73176 2.91046
lowerneck -12.181 -7.52766 -6.89867
upperneck 45.016 -1.73238 -1.74581
head 19.7261 0.279205 0.88822
rclavicle -3.18055e-015 8.74653e-015
rhumerus -51.2024 14.6193 -87.7451
rradius 43.1784
rwrist 7.86318
rhand -12.7777 -16.9912
rfingers 7.12502
rthumb 13.3075 -46.5463
lclavicle -3.18055e-015 8.74653e-015
lhumerus -51.1582 3.34121 85.5559
lradius 33.8016
lwrist -2.68663
lhand -8.29193 30.0245
lfingers 7.12502
lthumb 17.6279 59.2454
rfemur -47.5696 12.1102 20.1886
rtibia 35.023
rfoot -12.3701 -17.5483
rtoes 10.8058
lfemur -42.7948 1.60298 -23.4273
ltibia 69.9398
lfoot 4.66999 12.2787
ltoes -13.2503
104
root 4.98756 16.8282 21.7005 -155.131 -1.82521 180.113
lowerback -11.0337 1.07639 -1.85279
upperback -15.1754 -1.45081 1.54856
thorax -10.1175 -1.73058 2.90386
lowerneck -12.0674 -7.56585 -6.98253
upperneck 45.0936 -1.70844 -1.77908
head 19.7519 0.281047 0.896648
rclavicle 3.97569e-015 1.19271e-015
rhumerus -51.0892 15.3066 -88.47
rradius 44.2834
rwrist 7.50297
rhand -13.2125 -16.9072
rfingers 7.12502
rthumb 12.8884 -46.4892
lclavicle 3.97569e-015 1.19271e-015
lhumerus -51.321 3.8233 84.8161
lradius 32.6714
lwrist -3.72376
lhand -8.13023 29.6718
lfingers 7.12502
lthumb 17.7835 58.8786
rfemur -47.3084 12.2669 20.1423
rtibia 35.1877
rfoot -12.8722 -17.6782
rtoes 11.1589
lfemur -43.9947 1.3551 -23.4923
ltibia 70.5673
lfoot 3.96273 12.1355
ltoes -13.9674
105
root 4.99424 16.8307 21.5963 -155.072 -1.67374 179.976
lowerback -11.024 1.05454 -2.00086
upperback -15.1436 -1.46705 1.49907
thorax -10.0863 -1.72326 2.93062
lowerneck -12.0212 -7.59905 -7.02579
upperneck 45.2045 -1.65966 -1.847
head 19.8174 0.29534 0.885619
rclavicle 3.8763e-015 1.51076e-014
rhumerus -50.9842 15.9239 -89.1189
rradius 45.3967
rwrist 7.29067
rhand -13.5396 -16.8549
rfingers 7.12502
rthumb 12.573 -46.4565
lclavicle 3.8763e-015 1.51076e-014
lhumerus -51.4179 4.34036 84.0294
lradius 31.5294
lwrist -4.9855
lhand -7.85296 29.2692
lfingers 7.12502
lthumb 18.0503 58.4516
rfemur -47.0772 12.4908 19.9971
rtibia 35.3928
rfoot -13.2675 -17.8819
rtoes 11.0137
lfemur -45.1547 1.06552 -23.6013
ltibia 70.9748
lfoot 3.16457 11.8346
ltoes -14.636
